# 3ds Max Wavefront OBJ Exporter v0.99 - (c)2007 guruware
# File Created: 21.10.2025 14:14:15

#
# object ground_walls
#

v  -10.037439 -8.067675 0.000000
v  -3.787439 -8.067675 0.000000
v  -3.787439 -1.817675 0.000000
v  -10.037439 -1.817675 0.000000
v  2.462561 -8.067675 0.000000
v  2.462561 -1.817675 0.000000
v  8.712561 -8.067675 0.000000
v  8.712561 -1.817675 0.000000
v  14.962561 -8.067675 0.000000
v  14.962561 -1.817675 0.000000
v  -3.787439 4.432325 0.000000
v  -10.037439 4.432325 0.000000
v  2.462561 4.432325 0.000000
v  8.712561 4.432325 0.000000
v  14.962561 4.432325 0.000000
v  -3.787439 10.682325 0.000000
v  -10.037439 10.682325 0.000000
v  2.462561 10.682325 0.000000
v  8.712561 10.682325 0.000000
v  14.962561 10.682325 0.000000
v  -3.787439 16.932325 0.000000
v  -10.037439 16.932325 0.000000
v  2.462561 16.932325 0.000000
v  8.712561 16.932325 0.000000
v  14.962561 16.932325 0.000000
v  -0.100000 -0.100000 0.110000
v  5.100000 -0.100000 0.110000
v  5.100000 9.100000 0.110000
v  -0.100000 9.100000 0.110000
v  -0.100000 -0.100000 0.000000
v  5.100000 -0.100000 0.000000
v  5.100000 9.100000 0.000000
v  -0.100000 9.100000 0.000000
v  1.780000 -0.440000 0.100000
v  3.280000 -0.440000 0.100000
v  3.280000 -0.100000 0.100000
v  1.780000 -0.100000 0.100000
v  1.780000 -0.440000 0.000000
v  3.280000 -0.440000 0.000000
v  3.280000 -0.100000 0.000000
v  1.780000 -0.100000 0.000000
v  1.840000 -0.760000 0.080000
v  3.240000 -0.760000 0.080000
v  3.240000 -0.440000 0.080000
v  1.840000 -0.440000 0.080000
v  1.840000 -0.760000 0.000000
v  3.240000 -0.760000 0.000000
v  3.240000 -0.440000 0.000000
v  1.840000 -0.440000 0.000000
v  1.810000 -1.110000 0.060000
v  3.210000 -1.110000 0.060000
v  3.210000 -0.760000 0.060000
v  1.810000 -0.760000 0.060000
v  1.810000 -1.110000 0.000000
v  3.210000 -1.110000 0.000000
v  3.210000 -0.760000 0.000000
v  1.810000 -0.760000 0.000000
v  2.075000 0.100000 2.210000
v  2.075000 -0.100000 2.210000
v  2.075000 -0.100000 0.110000
v  2.075000 0.100000 0.110000
v  0.099537 -0.100000 3.110000
v  -0.100000 -0.100000 3.110000
v  0.099537 -0.100000 0.110000
v  2.500000 -0.100000 6.110000
v  0.099537 -0.100000 6.110000
v  2.500000 -0.100000 3.110000
v  -0.100000 2.966667 3.110000
v  -0.100000 2.966667 0.110000
v  0.099537 2.966667 0.110000
v  0.099537 2.966667 3.110000
v  0.099537 0.100000 3.110000
v  0.099537 0.100000 0.110000
v  0.099537 0.100000 6.110000
v  2.500000 0.100000 6.110000
v  2.500000 0.100000 3.110000
v  -0.100000 -0.100000 6.110000
v  2.925000 0.100000 0.110000
v  2.925000 -0.100000 0.110000
v  2.925000 -0.100000 2.210000
v  2.925000 0.100000 2.210000
v  5.100000 -0.100000 3.110000
v  4.900464 -0.100000 3.110000
v  4.900464 -0.100000 0.110000
v  4.900464 -0.100000 6.110000
v  -0.100000 2.966667 6.110000
v  -0.100000 6.033333 3.110000
v  -0.100000 6.033333 0.110000
v  0.099537 9.100000 6.110000
v  2.500000 9.100000 6.110000
v  2.500000 9.100000 3.110000
v  0.099537 9.100000 3.110000
v  0.099537 6.033333 0.110000
v  0.099537 6.033333 3.110000
v  0.099537 2.966667 6.110000
v  4.900464 0.100000 6.110000
v  4.900464 0.100000 3.110000
v  4.900464 2.966667 3.110000
v  4.900464 2.966667 0.110000
v  4.900464 0.100000 0.110000
v  5.100000 2.966667 0.110000
v  5.100000 2.966667 3.110000
v  5.100000 -0.100000 6.110000
v  -0.100000 6.033333 6.110000
v  -0.100000 9.100000 3.110000
v  0.099537 9.100000 0.110000
v  0.099537 6.033333 6.110000
v  4.900464 2.966667 6.110000
v  4.900463 6.033333 3.110000
v  4.900463 6.033333 0.110000
v  5.100000 6.033333 0.110000
v  5.100000 6.033333 3.110000
v  5.100000 2.966667 6.110000
v  -0.100000 9.100000 6.110000
v  4.900463 8.900000 3.110000
v  4.900463 8.900000 0.110000
v  4.900463 6.033333 6.110000
v  0.099537 8.900000 3.110000
v  0.099537 8.900000 6.110000
v  4.900463 9.100000 3.110000
v  4.900463 9.100000 0.110000
v  2.500000 9.100000 0.110000
v  4.900463 8.900000 6.110000
v  2.500000 8.900000 6.110000
v  2.500000 8.900000 3.110000
v  5.100000 9.100000 3.110000
v  5.100000 6.033333 6.110000
v  0.099537 8.900000 0.110000
v  5.100000 9.100000 6.110000
v  4.900463 9.100000 6.110000
v  2.500000 8.900000 0.110000
v  2.500000 -0.100000 2.210000
v  2.500000 0.100000 2.210000
# 133 vertices

vn 0.000000 0.000000 1.000000
vn -0.000000 -0.707107 0.707107
vn 0.000000 -0.707107 0.707107
vn 0.000000 0.707107 0.707107
vn 0.000000 -1.000000 0.000000
vn 1.000000 0.000000 -0.000004
vn 1.000000 0.000000 0.000000
vn 1.000000 0.000000 -0.000000
vn 0.000000 1.000000 0.000000
vn -1.000000 -0.000000 -0.000000
vn -1.000000 0.000000 0.000000
vn -1.000000 -0.000000 0.000000
vn -0.000000 -1.000000 0.000000
vn 0.000000 -1.000000 -0.000000
vn -0.000000 -1.000000 -0.000000
vn 0.000000 1.000000 -0.000000
vn -0.000000 1.000000 0.000000
vn -1.000000 0.000000 -0.000000
vn 0.000000 0.000000 -1.000000
# 19 vertex normals

vt 0.000000 0.000000 0.000000
vt 0.250000 0.000000 0.000000
vt 0.250000 0.250000 0.000000
vt 0.000000 0.250000 0.000000
vt 0.500000 0.000000 0.000000
vt 0.500000 0.250000 0.000000
vt 0.750000 0.000000 0.000000
vt 0.750000 0.250000 0.000000
vt 1.000000 0.000000 0.000000
vt 1.000000 0.250000 0.000000
vt 0.250000 0.500000 0.000000
vt 0.000000 0.500000 0.000000
vt 0.500000 0.500000 0.000000
vt 0.750000 0.500000 0.000000
vt 1.000000 0.500000 0.000000
vt 0.250000 0.750000 0.000000
vt 0.000000 0.750000 0.000000
vt 0.500000 0.750000 0.000000
vt 0.750000 0.750000 0.000000
vt 1.000000 0.750000 0.000000
vt 0.250000 1.000000 0.000000
vt 0.000000 1.000000 0.000000
vt 0.500000 1.000000 0.000000
vt 0.750000 1.000000 0.000000
vt 1.000000 1.000000 0.000000
vt 0.002386 1.000000 0.000000
vt 0.997613 1.000000 0.000000
vt 0.997614 0.000060 0.000000
vt 0.002386 0.000060 0.000000
vt 0.666667 0.500000 0.000000
vt 0.666667 0.000000 0.000000
vt 0.333333 0.000000 0.000000
vt 0.333333 0.500000 0.000000
vt 0.021739 0.500000 0.000000
vt 0.021739 0.000000 0.000000
vt 0.666667 1.000000 0.000000
vt 0.333333 1.000000 0.000000
vt 0.021739 1.000000 0.000000
vt 0.978261 0.000000 0.000000
vt 0.978261 0.500000 0.000000
vt 0.978261 1.000000 0.000000
vt 0.411458 0.000000 0.000000
vt 0.411458 0.350000 0.000000
vt 0.500000 0.350000 0.000000
vt 0.588542 0.350000 0.000000
vt 0.588542 0.000000 0.000000
vt 0.000000 0.002386 0.000000
vt 0.000000 0.997613 0.000000
vt 0.500000 0.997613 0.000000
vt 1.000000 0.997613 0.000000
vt 1.000000 0.002386 0.000000
vt 0.500000 0.002386 0.000000
# 52 texture coords

o ground_walls
g ground_walls
f 1/1/1 2/2/1 3/3/1 
f 3/3/1 4/4/1 1/1/1 
f 2/2/1 5/5/1 6/6/1 
f 6/6/1 3/3/1 2/2/1 
f 5/5/1 7/7/1 8/8/1 
f 8/8/1 6/6/1 5/5/1 
f 7/7/1 9/9/1 10/10/1 
f 10/10/1 8/8/1 7/7/1 
f 4/4/1 3/3/1 11/11/1 
f 11/11/1 12/12/1 4/4/1 
f 3/3/1 6/6/1 13/13/1 
f 13/13/1 11/11/1 3/3/1 
f 6/6/1 8/8/1 14/14/1 
f 14/14/1 13/13/1 6/6/1 
f 8/8/1 10/10/1 15/15/1 
f 15/15/1 14/14/1 8/8/1 
f 12/12/1 11/11/1 16/16/1 
f 16/16/1 17/17/1 12/12/1 
f 11/11/1 13/13/1 18/18/1 
f 18/18/1 16/16/1 11/11/1 
f 13/13/1 14/14/1 19/19/1 
f 19/19/1 18/18/1 13/13/1 
f 14/14/1 15/15/1 20/20/1 
f 20/20/1 19/19/1 14/14/1 
f 17/17/1 16/16/1 21/21/1 
f 21/21/1 22/22/1 17/17/1 
f 16/16/1 18/18/1 23/23/1 
f 23/23/1 21/21/1 16/16/1 
f 18/18/1 19/19/1 24/24/1 
f 24/24/1 23/23/1 18/18/1 
f 19/19/1 20/20/1 25/25/1 
f 25/25/1 24/24/1 19/19/1 
f 26/1/2 27/9/3 28/25/4 
f 28/25/4 29/22/4 26/1/2 
f 30/1/5 31/9/5 27/25/5 
f 27/25/5 26/22/5 30/1/5 
f 31/1/6 32/9/7 28/25/8 
f 28/25/8 27/22/6 31/1/6 
f 32/1/9 33/9/9 29/25/9 
f 29/25/9 28/22/9 32/1/9 
f 33/1/10 30/9/11 26/25/12 
f 26/25/12 29/22/10 33/1/10 
f 34/1/1 35/9/1 36/25/1 
f 36/25/1 37/22/1 34/1/1 
f 38/1/5 39/9/5 35/25/5 
f 35/25/5 34/22/5 38/1/5 
f 39/1/7 40/9/7 36/25/7 
f 36/25/7 35/22/7 39/1/7 
f 41/1/11 38/9/11 34/25/11 
f 34/25/11 37/22/11 41/1/11 
f 42/1/1 43/9/1 44/25/1 
f 44/25/1 45/22/1 42/1/1 
f 46/1/5 47/9/5 43/25/5 
f 43/25/5 42/22/5 46/1/5 
f 47/1/7 48/9/7 44/25/7 
f 44/25/7 43/22/7 47/1/7 
f 49/1/11 46/9/11 42/25/11 
f 42/25/11 45/22/11 49/1/11 
f 50/1/1 51/9/1 52/25/1 
f 52/25/1 53/22/1 50/1/1 
f 54/1/5 55/9/5 51/25/5 
f 51/25/5 50/22/5 54/1/5 
f 55/1/7 56/9/7 52/25/7 
f 52/25/7 51/22/7 55/1/7 
f 56/1/9 57/9/9 53/25/9 
f 53/25/9 52/22/9 56/1/9 
f 57/1/11 54/9/11 50/25/11 
f 50/25/11 53/22/11 57/1/11 
f 58/26/7 59/27/7 60/28/7 
f 60/28/7 61/29/7 58/26/7 
f 62/15/13 63/12/13 26/1/2 
f 26/1/2 64/9/13 62/15/13 
f 65/23/14 66/22/15 62/12/13 
f 62/12/13 67/13/14 65/23/14 
f 63/15/11 68/30/12 69/31/12 
f 69/31/12 26/9/11 63/15/11 
f 70/32/7 71/33/7 72/34/7 
f 72/34/7 73/35/7 70/32/7 
f 74/25/16 75/23/16 76/13/16 
f 76/13/16 72/15/16 74/25/16 
f 66/25/15 77/22/13 63/12/13 
f 63/12/13 62/15/13 66/25/15 
f 78/28/11 79/29/11 80/26/11 
f 80/26/11 81/27/11 78/28/11 
f 27/9/3 82/15/5 83/12/5 
f 83/12/5 84/1/5 27/9/3 
f 83/15/5 85/25/14 65/23/14 
f 65/23/14 67/13/14 83/15/5 
f 77/25/11 86/36/12 68/30/12 
f 68/30/12 63/15/11 77/25/11 
f 68/30/12 87/33/10 88/32/12 
f 88/32/12 69/31/12 68/30/12 
f 89/25/9 90/23/9 91/13/9 
f 91/13/9 92/15/9 89/25/9 
f 93/31/7 94/30/7 71/33/7 
f 71/33/7 70/32/7 93/31/7 
f 71/33/7 95/37/7 74/38/7 
f 74/38/7 72/34/7 71/33/7 
f 75/23/16 96/22/9 97/12/17 
f 97/12/17 76/13/16 75/23/16 
f 98/30/12 99/31/12 100/39/11 
f 100/39/11 97/40/11 98/30/12 
f 101/32/7 102/33/7 82/12/7 
f 82/12/7 27/1/7 101/32/7 
f 82/15/5 103/25/5 85/22/14 
f 85/22/14 83/12/5 82/15/5 
f 86/36/12 104/37/12 87/33/10 
f 87/33/10 68/30/12 86/36/12 
f 87/33/10 105/12/18 29/1/18 
f 29/1/18 88/32/12 87/33/10 
f 105/15/9 92/12/9 106/1/9 
f 106/1/9 29/9/4 105/15/9 
f 94/30/7 107/36/7 95/37/7 
f 95/37/7 71/33/7 94/30/7 
f 96/41/11 108/36/12 98/30/12 
f 98/30/12 97/40/11 96/41/11 
f 109/33/12 110/32/12 99/31/12 
f 99/31/12 98/30/12 109/33/12 
f 111/31/7 112/30/7 102/33/7 
f 102/33/7 101/32/7 111/31/7 
f 102/33/7 113/37/7 103/22/7 
f 103/22/7 82/12/7 102/33/7 
f 104/37/12 114/22/11 105/12/18 
f 105/12/18 87/33/10 104/37/12 
f 114/25/9 89/22/9 92/12/9 
f 92/12/9 105/15/9 114/25/9 
f 110/32/12 109/33/12 115/34/11 
f 115/34/11 116/35/11 110/32/12 
f 108/36/12 117/37/12 109/33/12 
f 109/33/12 98/30/12 108/36/12 
f 107/36/7 94/30/7 118/40/7 
f 118/40/7 119/41/7 107/36/7 
f 91/13/9 120/12/9 121/1/9 
f 121/1/9 122/5/9 91/13/9 
f 115/15/5 123/25/5 124/23/5 
f 124/23/5 125/13/5 115/15/5 
f 28/9/7 126/15/7 112/30/7 
f 112/30/7 111/31/7 28/9/7 
f 112/30/7 127/36/7 113/37/7 
f 113/37/7 102/33/7 112/30/7 
f 94/30/7 93/31/7 128/39/7 
f 128/39/7 118/40/7 94/30/7 
f 126/12/9 28/1/4 121/9/9 
f 121/9/9 120/15/9 126/12/9 
f 126/15/7 129/25/7 127/36/7 
f 127/36/7 112/30/7 126/15/7 
f 109/33/12 117/37/12 123/38/11 
f 123/38/11 115/34/11 109/33/12 
f 130/25/9 129/22/9 126/12/9 
f 126/12/9 120/15/9 130/25/9 
f 131/5/5 125/13/5 118/12/5 
f 118/12/5 128/1/5 131/5/5 
f 90/23/9 130/22/9 120/12/9 
f 120/12/9 91/13/9 90/23/9 
f 92/15/9 91/13/9 122/5/9 
f 122/5/9 106/9/9 92/15/9 
f 116/9/5 115/15/5 125/13/5 
f 125/13/5 131/5/5 116/9/5 
f 124/23/5 119/22/5 118/12/5 
f 118/12/5 125/13/5 124/23/5 
f 64/1/13 60/42/5 59/43/5 
f 59/43/5 132/44/5 67/13/14 
f 59/43/5 67/13/14 62/12/13 
f 64/1/13 59/43/5 62/12/13 
f 76/13/16 133/44/9 58/45/16 
f 72/15/16 76/13/16 58/45/16 
f 73/9/16 72/15/16 58/45/16 
f 73/9/16 58/45/16 61/46/9 
f 59/47/19 58/48/19 133/49/19 
f 133/49/19 81/50/19 80/51/19 
f 133/49/19 80/51/19 132/52/19 
f 59/47/19 133/49/19 132/52/19 
f 80/45/5 79/46/5 84/9/5 
f 80/45/5 84/9/5 83/15/5 
f 80/45/5 83/15/5 67/13/14 
f 132/44/5 80/45/5 67/13/14 
f 100/1/17 78/42/17 81/43/17 
f 97/12/17 100/1/17 81/43/17 
f 76/13/16 97/12/17 81/43/17 
f 76/13/16 81/43/17 133/44/9 
# 180 faces

