# 3ds Max Wavefront OBJ Exporter v0.99 - (c)2007 guruware
# File Created: 19.10.2025 10:05:58

#
# object ground
#

v  -10.037439 -8.067675 0.000000
v  -3.787439 -8.067675 0.000000
v  -3.787439 -1.817675 0.000000
v  -10.037439 -1.817675 0.000000
v  2.462561 -8.067675 0.000000
v  2.462561 -1.817675 0.000000
v  8.712561 -8.067675 0.000000
v  8.712561 -1.817675 0.000000
v  14.962561 -8.067675 0.000000
v  14.962561 -1.817675 0.000000
v  -3.787439 4.432325 0.000000
v  -10.037439 4.432325 0.000000
v  2.462561 4.432325 0.000000
v  8.712561 4.432325 0.000000
v  14.962561 4.432325 0.000000
v  -3.787439 10.682325 0.000000
v  -10.037439 10.682325 0.000000
v  2.462561 10.682325 0.000000
v  8.712561 10.682325 0.000000
v  14.962561 10.682325 0.000000
v  -3.787439 16.932325 0.000000
v  -10.037439 16.932325 0.000000
v  2.462561 16.932325 0.000000
v  8.712561 16.932325 0.000000
v  14.962561 16.932325 0.000000
v  -0.100000 -0.100000 0.110000
v  5.100000 -0.100000 0.110000
v  5.100000 9.100000 0.110000
v  -0.100000 9.100000 0.110000
v  -0.100000 -0.100000 0.000000
v  5.100000 -0.100000 0.000000
v  5.100000 9.100000 0.000000
v  -0.100000 9.100000 0.000000
v  1.780000 -0.440000 0.100000
v  3.280000 -0.440000 0.100000
v  3.280000 -0.100000 0.100000
v  1.780000 -0.100000 0.100000
v  1.780000 -0.440000 0.000000
v  3.280000 -0.440000 0.000000
v  3.280000 -0.100000 0.000000
v  1.780000 -0.100000 0.000000
v  1.840000 -0.760000 0.080000
v  3.240000 -0.760000 0.080000
v  3.240000 -0.440000 0.080000
v  1.840000 -0.440000 0.080000
v  1.840000 -0.760000 0.000000
v  3.240000 -0.760000 0.000000
v  3.240000 -0.440000 0.000000
v  1.840000 -0.440000 0.000000
v  1.810000 -1.110000 0.060000
v  3.210000 -1.110000 0.060000
v  3.210000 -0.760000 0.060000
v  1.810000 -0.760000 0.060000
v  1.810000 -1.110000 0.000000
v  3.210000 -1.110000 0.000000
v  3.210000 -0.760000 0.000000
v  1.810000 -0.760000 0.000000
# 57 vertices

vn 0.000000 0.000000 1.000000
vn 0.000000 -1.000000 0.000000
vn 1.000000 0.000000 0.000000
vn 0.000000 1.000000 0.000000
vn -1.000000 0.000000 0.000000
# 5 vertex normals

vt 0.000000 0.000000 0.000000
vt 0.250000 0.000000 0.000000
vt 0.250000 0.250000 0.000000
vt 0.000000 0.250000 0.000000
vt 0.500000 0.000000 0.000000
vt 0.500000 0.250000 0.000000
vt 0.750000 0.000000 0.000000
vt 0.750000 0.250000 0.000000
vt 1.000000 0.000000 0.000000
vt 1.000000 0.250000 0.000000
vt 0.250000 0.500000 0.000000
vt 0.000000 0.500000 0.000000
vt 0.500000 0.500000 0.000000
vt 0.750000 0.500000 0.000000
vt 1.000000 0.500000 0.000000
vt 0.250000 0.750000 0.000000
vt 0.000000 0.750000 0.000000
vt 0.500000 0.750000 0.000000
vt 0.750000 0.750000 0.000000
vt 1.000000 0.750000 0.000000
vt 0.250000 1.000000 0.000000
vt 0.000000 1.000000 0.000000
vt 0.500000 1.000000 0.000000
vt 0.750000 1.000000 0.000000
vt 1.000000 1.000000 0.000000
# 25 texture coords

o ground
g ground
s 1
f 1/1/1 2/2/1 3/3/1 
f 3/3/1 4/4/1 1/1/1 
f 2/2/1 5/5/1 6/6/1 
f 6/6/1 3/3/1 2/2/1 
f 5/5/1 7/7/1 8/8/1 
f 8/8/1 6/6/1 5/5/1 
f 7/7/1 9/9/1 10/10/1 
f 10/10/1 8/8/1 7/7/1 
f 4/4/1 3/3/1 11/11/1 
f 11/11/1 12/12/1 4/4/1 
f 3/3/1 6/6/1 13/13/1 
f 13/13/1 11/11/1 3/3/1 
f 6/6/1 8/8/1 14/14/1 
f 14/14/1 13/13/1 6/6/1 
f 8/8/1 10/10/1 15/15/1 
f 15/15/1 14/14/1 8/8/1 
f 12/12/1 11/11/1 16/16/1 
f 16/16/1 17/17/1 12/12/1 
f 11/11/1 13/13/1 18/18/1 
f 18/18/1 16/16/1 11/11/1 
f 13/13/1 14/14/1 19/19/1 
f 19/19/1 18/18/1 13/13/1 
f 14/14/1 15/15/1 20/20/1 
f 20/20/1 19/19/1 14/14/1 
f 17/17/1 16/16/1 21/21/1 
f 21/21/1 22/22/1 17/17/1 
f 16/16/1 18/18/1 23/23/1 
f 23/23/1 21/21/1 16/16/1 
f 18/18/1 19/19/1 24/24/1 
f 24/24/1 23/23/1 18/18/1 
f 19/19/1 20/20/1 25/25/1 
f 25/25/1 24/24/1 19/19/1 
s 4
f 26/1/1 27/9/1 28/25/1 
f 28/25/1 29/22/1 26/1/1 
s 8
f 30/1/2 31/9/2 27/25/2 
f 27/25/2 26/22/2 30/1/2 
s 16
f 31/1/3 32/9/3 28/25/3 
f 28/25/3 27/22/3 31/1/3 
s 32
f 32/1/4 33/9/4 29/25/4 
f 29/25/4 28/22/4 32/1/4 
s 64
f 33/1/5 30/9/5 26/25/5 
f 26/25/5 29/22/5 33/1/5 
s 4
f 34/1/1 35/9/1 36/25/1 
f 36/25/1 37/22/1 34/1/1 
s 8
f 38/1/2 39/9/2 35/25/2 
f 35/25/2 34/22/2 38/1/2 
s 16
f 39/1/3 40/9/3 36/25/3 
f 36/25/3 35/22/3 39/1/3 
s 64
f 41/1/5 38/9/5 34/25/5 
f 34/25/5 37/22/5 41/1/5 
s 4
f 42/1/1 43/9/1 44/25/1 
f 44/25/1 45/22/1 42/1/1 
s 8
f 46/1/2 47/9/2 43/25/2 
f 43/25/2 42/22/2 46/1/2 
s 16
f 47/1/3 48/9/3 44/25/3 
f 44/25/3 43/22/3 47/1/3 
s 64
f 49/1/5 46/9/5 42/25/5 
f 42/25/5 45/22/5 49/1/5 
s 4
f 50/1/1 51/9/1 52/25/1 
f 52/25/1 53/22/1 50/1/1 
s 8
f 54/1/2 55/9/2 51/25/2 
f 51/25/2 50/22/2 54/1/2 
s 16
f 55/1/3 56/9/3 52/25/3 
f 52/25/3 51/22/3 55/1/3 
s 32
f 56/1/4 57/9/4 53/25/4 
f 53/25/4 52/22/4 56/1/4 
s 64
f 57/1/5 54/9/5 50/25/5 
f 50/25/5 53/22/5 57/1/5 
# 68 faces

